subject05_noload_free_trial03_ground_reaction
version=1
nRows=22
nColumns=19
inDegrees=no
endheader
time	ground_force_r_vx	ground_force_r_vy	ground_force_r_vz	ground_force_r_px	ground_force_r_py	ground_force_r_pz	ground_torque_r_x	ground_torque_r_y	ground_torque_r_z	ground_force_l_vx	ground_force_l_vy	ground_force_l_vz	ground_force_l_px	ground_force_l_py	ground_force_l_pz	ground_torque_l_x	ground_torque_l_y	ground_torque_l_z
1.731500	0.000000	0.000000	0.000000	2.928976	0.000000	-36.753523	0.000000	0.000000	0.000000	4.308194	34.583189	-3.417573	1.358060	0.000000	-0.286972	0.000000	-2.268594	0.000000
1.732000	0.000000	0.000000	0.000000	2.925157	0.000000	-36.870422	0.000000	0.000000	0.000000	3.999975	33.557414	-3.415046	1.359562	0.000000	-0.286517	0.000000	-2.263021	0.000000
1.732500	0.000000	0.000000	0.000000	2.921313	0.000000	-36.987565	0.000000	0.000000	0.000000	3.700858	32.556819	-3.412947	1.361111	0.000000	-0.286046	0.000000	-2.257772	0.000000
1.733000	0.000000	0.000000	0.000000	2.917442	0.000000	-37.104951	0.000000	0.000000	0.000000	3.410644	31.580977	-3.411276	1.362708	0.000000	-0.285556	0.000000	-2.252846	0.000000
1.733500	0.000000	0.000000	0.000000	2.913546	0.000000	-37.222581	0.000000	0.000000	0.000000	3.129136	30.629462	-3.410031	1.364354	0.000000	-0.285048	0.000000	-2.248239	0.000000
1.734000	0.000000	0.000000	0.000000	2.909624	0.000000	-37.340455	0.000000	0.000000	0.000000	2.856138	29.701853	-3.409206	1.366054	0.000000	-0.284522	0.000000	-2.243952	0.000000
1.734500	0.000000	0.000000	0.000000	2.905677	0.000000	-37.458574	0.000000	0.000000	0.000000	2.591458	28.797735	-3.408795	1.367807	0.000000	-0.283977	0.000000	-2.239980	0.000000
1.735000	0.000000	0.000000	0.000000	2.901703	0.000000	-37.576937	0.000000	0.000000	0.000000	2.334904	27.916699	-3.408791	1.369617	0.000000	-0.283411	0.000000	-2.236322	0.000000
1.735500	0.000000	0.000000	0.000000	2.897703	0.000000	-37.695546	0.000000	0.000000	0.000000	2.086284	27.058337	-3.409186	1.371485	0.000000	-0.282825	0.000000	-2.232977	0.000000
1.736000	0.000000	0.000000	0.000000	2.893678	0.000000	-37.814400	0.000000	0.000000	0.000000	1.845411	26.222244	-3.409968	1.373415	0.000000	-0.282218	0.000000	-2.229942	0.000000
1.736500	0.000000	0.000000	0.000000	2.889627	0.000000	-37.933499	0.000000	0.000000	0.000000	1.612098	25.408020	-3.411126	1.375408	0.000000	-0.281588	0.000000	-2.227215	0.000000
1.737000	0.000000	0.000000	0.000000	2.885549	0.000000	-38.052844	0.000000	0.000000	0.000000	1.386157	24.615267	-3.412645	1.377468	0.000000	-0.280936	0.000000	-2.224796	0.000000
1.737500	0.000000	0.000000	0.000000	2.881446	0.000000	-38.172434	0.000000	0.000000	0.000000	1.167404	23.843592	-3.414509	1.379596	0.000000	-0.280261	0.000000	-2.222684	0.000000
1.738000	0.000000	0.000000	0.000000	2.877316	0.000000	-38.292271	0.000000	0.000000	0.000000	0.955653	23.092606	-3.416699	1.381796	0.000000	-0.279562	0.000000	-2.220879	0.000000
1.738500	0.000000	0.000000	0.000000	2.873160	0.000000	-38.412355	0.000000	0.000000	0.000000	0.750719	22.361918	-3.419197	1.384070	0.000000	-0.278838	0.000000	-2.219380	0.000000
1.739000	0.000000	0.000000	0.000000	2.868978	0.000000	-38.532685	0.000000	0.000000	0.000000	0.552419	21.651137	-3.421983	1.386421	0.000000	-0.278088	0.000000	-2.218187	0.000000
1.739500	0.000000	0.000000	0.000000	2.864770	0.000000	-38.653262	0.000000	0.000000	0.000000	0.360573	20.959867	-3.425037	1.388853	0.000000	-0.277311	0.000000	-2.217301	0.000000
1.740000	0.000000	0.000000	0.000000	2.860536	0.000000	-38.774087	0.000000	0.000000	0.000000	0.175003	20.287715	-3.428339	1.391369	0.000000	-0.276507	0.000000	-2.216721	0.000000
1.740500	0.000000	0.000000	0.000000	2.856275	0.000000	-38.895159	0.000000	0.000000	0.000000	-0.004469	19.634287	-3.431870	1.393972	0.000000	-0.275674	0.000000	-2.216449	0.000000
1.741000	0.000000	0.000000	0.000000	2.851988	0.000000	-39.016478	0.000000	0.000000	0.000000	-0.178016	18.999194	-3.435613	1.396664	0.000000	-0.274813	0.000000	-2.216486	0.000000
1.741500	0.000000	0.000000	0.000000	2.847674	0.000000	-39.138046	0.000000	0.000000	0.000000	-0.345809	18.382049	-3.439554	1.399451	0.000000	-0.273920	0.000000	-2.216831	0.000000
1.742000	0.000000	0.000000	0.000000	2.843334	0.000000	-39.259861	0.000000	0.000000	0.000000	-0.508013	17.782470	-3.443683	1.402334	0.000000	-0.272996	0.000000	-2.217486	0.000000
